<svg width="17" height="17" viewBox="0 0 17 17" fill="none" xmlns="http://www.w3.org/2000/svg">
<path d="M8.33333 16.6667C7.18056 16.6667 6.09722 16.4479 5.08333 16.0104C4.06944 15.5729 3.1875 14.9792 2.4375 14.2292C1.6875 13.4792 1.09375 12.5972 0.65625 11.5833C0.21875 10.5694 0 9.48611 0 8.33333C0 7.18056 0.21875 6.09722 0.65625 5.08333C1.09375 4.06944 1.6875 3.1875 2.4375 2.4375C3.1875 1.6875 4.06944 1.09375 5.08333 0.65625C6.09722 0.21875 7.18056 0 8.33333 0C9.23611 0 10.0903 0.131944 10.8958 0.395833C11.7014 0.659722 12.4444 1.02778 13.125 1.5L11.9167 2.72917C11.3889 2.39583 10.8264 2.13542 10.2292 1.94792C9.63194 1.76042 9 1.66667 8.33333 1.66667C6.48611 1.66667 4.91319 2.31597 3.61458 3.61458C2.31597 4.91319 1.66667 6.48611 1.66667 8.33333C1.66667 10.1806 2.31597 11.7535 3.61458 13.0521C4.91319 14.3507 6.48611 15 8.33333 15C10.1806 15 11.7535 14.3507 13.0521 13.0521C14.3507 11.7535 15 10.1806 15 8.33333C15 8.08333 14.9861 7.83333 14.9583 7.58333C14.9306 7.33333 14.8889 7.09028 14.8333 6.85417L16.1875 5.5C16.3403 5.94444 16.4583 6.40278 16.5417 6.875C16.625 7.34722 16.6667 7.83333 16.6667 8.33333C16.6667 9.48611 16.4479 10.5694 16.0104 11.5833C15.5729 12.5972 14.9792 13.4792 14.2292 14.2292C13.4792 14.9792 12.5972 15.5729 11.5833 16.0104C10.5694 16.4479 9.48611 16.6667 8.33333 16.6667ZM7.16667 12.1667L3.625 8.625L4.79167 7.45833L7.16667 9.83333L15.5 1.47917L16.6667 2.64583L7.16667 12.1667Z" fill="#3F6900"/>
</svg>
